<?xml version="1.0" encoding="utf-8"?>
<!-- Generator: Adobe Illustrator 16.0.3, SVG Export Plug-In . SVG Version: 6.00 Build 0)  -->
<!DOCTYPE svg PUBLIC "-//W3C//DTD SVG 1.1//EN" "http://www.w3.org/Graphics/SVG/1.1/DTD/svg11.dtd">
<svg version="1.1" id="Layer_1" xmlns="http://www.w3.org/2000/svg" xmlns:xlink="http://www.w3.org/1999/xlink" x="0px" y="0px"
	 width="248px" height="42px" viewBox="0 0 248 42" enable-background="new 0 0 248 42" xml:space="preserve">
<g>
	<path fill="#454F5E" d="M68.319,11.829c-2.324,0-3.192,1.094-3.192,2.213c0,3.668,10.22,1.959,10.22,8.959
		c0,3.416-2.408,5.544-7.028,5.544c-3.332,0-5.992-1.651-7.084-3.416c-0.14-0.224-0.224-0.504-0.224-0.783
		c0-0.841,0.672-1.513,1.484-1.513c0.616,0,0.952,0.336,1.232,0.616c1.176,1.176,2.66,2.128,4.592,2.128
		c2.548,0,3.78-0.84,3.78-2.576c0-4.088-10.22-2.211-10.22-8.959c0-2.771,1.988-5.125,6.44-5.125c2.8,0,5.236,1.037,6.356,2.633
		c0.168,0.252,0.28,0.561,0.28,0.896c0,0.813-0.672,1.484-1.512,1.484c-0.392,0-0.784-0.225-1.204-0.617
		C71.371,12.474,69.915,11.829,68.319,11.829z"/>
	<path fill="#454F5E" d="M80.471,17.233h5.292c0.784,0,1.428,0.645,1.428,1.428c0,0.785-0.644,1.43-1.428,1.43h-5.292v5.15h7.42
		c0.812,0,1.456,0.645,1.456,1.456c0,0.813-0.644,1.456-1.456,1.456h-9.044c-0.896,0-1.624-0.728-1.624-1.624V10.935
		c0-0.896,0.728-1.625,1.624-1.625h8.736c0.812,0,1.456,0.645,1.456,1.457c0,0.811-0.644,1.455-1.456,1.455h-7.112V17.233z"/>
	<path fill="#454F5E" d="M90.439,18.745c0-6.635,3.22-9.828,8.875-9.828c5.656,0,8.877,3.193,8.877,9.828
		c0,6.552-3.221,9.8-8.877,9.8C93.659,28.545,90.439,25.297,90.439,18.745z M93.799,18.745c0,4.62,1.82,6.889,5.516,6.889
		c3.695,0,5.516-2.269,5.516-6.889c0-4.646-1.82-6.916-5.516-6.916C95.619,11.829,93.799,14.099,93.799,18.745z"/>
	<path fill="#454F5E" d="M122.275,10.653c-2.941,0-4.061,1.457-4.061,3.053c0,4.648,10.584,2.66,10.584,9.407
		c0,3.5-2.408,5.432-6.721,5.432c-3.191,0-5.572-1.624-6.523-3.443c-0.111-0.225-0.141-0.336-0.141-0.504
		c0-0.504,0.393-0.896,0.896-0.896c0.336,0,0.615,0.168,0.783,0.448c0.896,1.456,2.521,2.66,4.984,2.66
		c3.08,0,4.816-1.232,4.816-3.696c0-5.235-10.584-2.771-10.584-9.407c0-2.576,1.875-4.789,5.965-4.789
		c2.658,0,4.814,1.121,5.99,2.885c0.113,0.168,0.168,0.336,0.168,0.531c0,0.504-0.391,0.896-0.895,0.896
		c-0.252,0-0.504-0.084-0.729-0.363C125.971,11.829,124.627,10.653,122.275,10.653z"/>
	<path fill="#454F5E" d="M130.955,11.522c0-0.813,0.391-1.121,1.063-1.121c0.674,0,1.064,0.309,1.064,1.121
		c0,0.672-0.391,1.063-1.064,1.063C131.346,12.585,130.955,12.194,130.955,11.522z M132.914,27.481c0,0.504-0.391,0.896-0.896,0.896
		c-0.504,0-0.895-0.392-0.895-0.896V16.114c0-0.504,0.391-0.896,0.895-0.896c0.506,0,0.896,0.393,0.896,0.896V27.481z"/>
	<path fill="#454F5E" d="M136.553,12.501c0-0.475,0.422-0.895,0.896-0.895c0.504,0,0.896,0.42,0.896,0.895v2.941h1.82
		c0.477,0,0.84,0.363,0.84,0.84s-0.363,0.84-0.84,0.84h-1.82v7.728c0,1.204,0.672,1.848,1.623,1.848c0.477,0,0.869,0.364,0.869,0.84
		c0,0.477-0.393,0.84-0.869,0.84c-2.211,0-3.416-1.483-3.416-3.527v-7.728h-1.092c-0.475,0-0.84-0.363-0.84-0.84
		s0.365-0.84,0.84-0.84h1.092V12.501z"/>
	<path fill="#454F5E" d="M147.895,15.05c4.479,0,5.348,3.557,5.348,5.461c0,0.811,0,1.791-1.121,1.791h-8.176
		c0,2.771,1.596,4.563,4.229,4.563c1.625,0,2.576-0.616,3.359-1.204c0.168-0.111,0.281-0.168,0.504-0.168
		c0.449,0,0.813,0.364,0.813,0.813c0,0.308-0.141,0.476-0.309,0.644c-0.42,0.42-1.875,1.568-4.367,1.568
		c-3.725,0-6.047-2.044-6.047-6.747C142.127,17.458,144.254,15.05,147.895,15.05z M147.895,16.675c-2.438,0-3.781,1.566-3.949,4.059
		h7.533C151.479,18.718,150.777,16.675,147.895,16.675z"/>
	<path fill="#454F5E" d="M154.727,18.745c0-6.635,3.303-9.828,8.734-9.828c2.66,0,4.984,1.148,6.301,2.969
		c0.141,0.195,0.195,0.393,0.195,0.588c0,0.504-0.391,0.896-0.895,0.896c-0.252,0-0.506-0.084-0.729-0.363
		c-0.953-1.316-2.771-2.354-4.873-2.354c-4.311,0-6.775,2.605-6.775,8.092c0,5.824,2.465,8.064,6.775,8.064
		c1.85,0,3.781-0.729,4.873-2.296c0.195-0.28,0.504-0.364,0.729-0.364c0.504,0,0.895,0.392,0.895,0.896
		c0,0.225-0.055,0.364-0.168,0.532c-1.232,1.792-3.752,2.968-6.328,2.968C158.029,28.545,154.727,25.634,154.727,18.745z"/>
	<path fill="#454F5E" d="M182.949,20.005v7.477c0,0.504-0.393,0.896-0.896,0.896s-0.895-0.392-0.895-0.896V20.37
		c0-2.213-0.645-3.725-3.361-3.725c-2.771,0-3.723,1.68-3.723,3.92v6.916c0,0.504-0.393,0.896-0.896,0.896s-0.896-0.392-0.896-0.896
		V9.114c0-0.504,0.393-0.896,0.896-0.896s0.896,0.393,0.896,0.896v7.896c0.531-1.064,1.902-1.961,3.723-1.961
		C182.109,15.05,182.949,17.626,182.949,20.005z"/>
	<path fill="#454F5E" d="M190.537,15.05c4.479,0,5.348,3.557,5.348,5.461c0,0.811,0,1.791-1.121,1.791h-8.176
		c0,2.771,1.596,4.563,4.229,4.563c1.625,0,2.576-0.616,3.359-1.204c0.168-0.111,0.281-0.168,0.504-0.168
		c0.449,0,0.813,0.364,0.813,0.813c0,0.308-0.141,0.476-0.309,0.644c-0.42,0.42-1.875,1.568-4.367,1.568
		c-3.725,0-6.047-2.044-6.047-6.747C184.77,17.458,186.896,15.05,190.537,15.05z M190.537,16.675c-2.438,0-3.781,1.566-3.949,4.059
		h7.533C194.121,18.718,193.42,16.675,190.537,16.675z"/>
	<path fill="#454F5E" d="M202.885,15.05c2.492,0,3.865,1.316,4.313,1.932c0.141,0.197,0.195,0.336,0.195,0.533
		c0,0.475-0.363,0.811-0.811,0.811c-0.281,0-0.477-0.111-0.674-0.336c-0.42-0.475-1.176-1.314-3.023-1.314
		c-2.576,0-3.947,1.65-3.947,5.096c0,3.499,1.371,5.123,3.947,5.123c1.625,0,2.604-0.729,3.248-1.204
		c0.197-0.14,0.336-0.196,0.533-0.196c0.447,0,0.811,0.364,0.811,0.813c0,0.252-0.084,0.447-0.363,0.699
		c-0.615,0.505-1.961,1.513-4.229,1.513c-3.611,0-5.768-2.156-5.768-6.747C197.117,17.179,199.273,15.05,202.885,15.05z"/>
	<path fill="#454F5E" d="M217.781,27.957l-4.957-6.354l-1.707,1.371v4.508c0,0.504-0.393,0.896-0.896,0.896
		s-0.896-0.392-0.896-0.896V9.114c0-0.504,0.393-0.896,0.896-0.896s0.896,0.393,0.896,0.896v11.732l6.607-5.404
		c0.225-0.197,0.447-0.225,0.615-0.225c0.504,0,0.896,0.393,0.896,0.896c0,0.223-0.084,0.504-0.363,0.729l-4.592,3.668l4.982,6.41
		c0.168,0.196,0.197,0.393,0.197,0.561c0,0.504-0.393,0.896-0.896,0.896C218.256,28.377,218.004,28.237,217.781,27.957z"/>
	<path fill="#454F5E" d="M222.82,16.114v7.307c0,1.82,0.588,3.389,3.416,3.389s3.416-1.568,3.416-3.389v-7.307
		c0-0.504,0.42-0.896,0.924-0.896c0.477,0,0.869,0.393,0.869,0.896v7.307c0,2.66-0.869,5.097-5.209,5.097
		c-4.313,0-5.207-2.437-5.207-5.097v-7.307c0-0.504,0.391-0.896,0.895-0.896C222.4,15.218,222.82,15.61,222.82,16.114z"/>
	<path fill="#454F5E" d="M235.896,16.114v0.896c0.531-0.953,1.932-1.961,3.809-1.961c3.639,0,5.852,2.129,5.852,6.721
		c0,4.591-2.213,6.747-5.852,6.747c-1.877,0-3.221-1.008-3.809-1.96v6.328c0,0.476-0.42,0.896-0.896,0.896
		c-0.475,0-0.895-0.42-0.895-0.896V16.114c0-0.504,0.42-0.896,0.895-0.896C235.477,15.218,235.896,15.61,235.896,16.114z
		 M239.705,26.894c2.576,0,4.031-1.624,4.031-5.123c0-3.5-1.512-5.096-4.088-5.096c-2.072,0-3.809,1.455-3.809,5.096
		C235.84,25.381,237.521,26.894,239.705,26.894z"/>
</g>
<g>
	<g>
		
			<linearGradient id="SVGID_1_" gradientUnits="userSpaceOnUse" x1="53.2559" y1="91.4521" x2="53.2559" y2="49.4521" gradientTransform="matrix(1 0 0 1 -27.75 -49.4521)">
			<stop  offset="0" style="stop-color:#F76F01"/>
			<stop  offset="1" style="stop-color:#FF9638"/>
		</linearGradient>
		<path fill="url(#SVGID_1_)" d="M12.12,27.563h3.572c0.602,0,1.159-0.296,1.481-0.798l1.437-2.148l2.514,8.795
			c0.208,0.739,0.863,1.297,1.772,1.297c0.81-0.029,1.506-0.599,1.689-1.396l2.695-11.894l1.856,8.318
			c0.293,1.299,1.828,1.832,2.862,1.007l3.979-3.182h2.947c2.372,0,2.36-3.576,0-3.576h-3.573c-0.407,0-0.797,0.14-1.117,0.392
			L32,26.164l-2.944-13.289c-0.184-0.811-0.908-1.396-1.747-1.396c-0.838,0-1.564,0.573-1.745,1.396l-2.918,12.844l-1.659-5.793
			c-0.42-1.451-2.362-1.773-3.198-0.504l-3.044,4.565H12.12C9.746,23.987,9.759,27.563,12.12,27.563z M48.933,0H2.077
			C0.932,0,0,0.968,0,2.164v37.677C0,41.034,0.933,42,2.077,42h46.856c1.147,0,2.078-0.966,2.078-2.159V2.164
			C51.011,0.968,50.081,0,48.933,0z M15.087,2.434c1.066,0,1.929,0.864,1.929,1.931c0,1.065-0.863,1.929-1.929,1.929
			c-1.066,0-1.93-0.863-1.93-1.929C13.158,3.298,14.021,2.434,15.087,2.434z M9.854,2.434c1.065,0,1.929,0.864,1.929,1.931
			c0,1.065-0.864,1.929-1.929,1.929c-1.067,0-1.931-0.863-1.931-1.929C7.923,3.298,8.788,2.434,9.854,2.434z M4.62,2.434
			c1.067,0,1.929,0.864,1.929,1.931c0,1.065-0.862,1.929-1.929,1.929c-1.066,0-1.93-0.863-1.93-1.929
			C2.69,3.298,3.554,2.434,4.62,2.434z M47.996,37.097c0,1.052-0.847,1.906-1.892,1.906H4.91c-1.046,0-1.894-0.854-1.894-1.906
			V8.009h44.98V37.097z"/>
	</g>
</g>
</svg>
